<svg width="16" height="16" viewBox="0 0 16 16" fill="none" xmlns="http://www.w3.org/2000/svg">
<path d="M7.49621 2.78269C7.65053 2.33874 7.72768 2.11677 7.84178 2.05525C7.94052 2.00201 8.05943 2.00201 8.15818 2.05525C8.27227 2.11677 8.34943 2.33874 8.50374 2.78269L9.52392 5.71761C9.56784 5.84397 9.5898 5.90714 9.62938 5.95419C9.66433 5.99575 9.70891 6.02814 9.75924 6.04854C9.81622 6.07164 9.88309 6.073 10.0168 6.07573L13.1234 6.13903C13.5933 6.14861 13.8282 6.1534 13.922 6.2429C14.0031 6.32036 14.0399 6.43344 14.0198 6.54381C13.9965 6.67133 13.8092 6.81331 13.4347 7.09726L10.9587 8.97445C10.8521 9.05526 10.7988 9.09567 10.7663 9.14784C10.7375 9.19393 10.7205 9.24634 10.7167 9.30051C10.7123 9.36183 10.7317 9.42585 10.7704 9.55389L11.6702 12.5279C11.8063 12.9778 11.8743 13.2027 11.8182 13.3196C11.7696 13.4207 11.6734 13.4906 11.5622 13.5055C11.4337 13.5228 11.2408 13.3886 10.8551 13.1202L8.30461 11.3454C8.19481 11.269 8.13991 11.2308 8.08024 11.216C8.02753 11.2029 7.97242 11.2029 7.91971 11.216C7.86005 11.2308 7.80515 11.269 7.69535 11.3454L5.1449 13.1202C4.75911 13.3886 4.56622 13.5228 4.43775 13.5055C4.32657 13.4906 4.23037 13.4207 4.18178 13.3196C4.12564 13.2027 4.19369 12.9778 4.32979 12.5279L5.22955 9.55389C5.26829 9.42585 5.28765 9.36183 5.28329 9.30051C5.27944 9.24634 5.26241 9.19393 5.23369 9.14784C5.20117 9.09567 5.14787 9.05526 5.04128 8.97445L2.56525 7.09726C2.19072 6.81331 2.00345 6.67133 1.9802 6.54381C1.96008 6.43344 1.99683 6.32036 2.07798 6.2429C2.17174 6.1534 2.40669 6.14861 2.87659 6.13903L5.98313 6.07573C6.11687 6.073 6.18374 6.07164 6.24071 6.04854C6.29104 6.02814 6.33562 5.99575 6.37058 5.95419C6.41015 5.90714 6.43211 5.84397 6.47603 5.71761L7.49621 2.78269Z" fill="#EBE100" stroke="#EBE100" stroke-width="1.33333" stroke-linecap="round" stroke-linejoin="round"/>
</svg>
